Patient4_TMGait_0pt8_01_left_49_GRF.mot
version=1
nRows=45
nColumns=19
inDegrees=no
endheader
time	F1x	F1y	F1z	M1x	M1y	M1z	F2x	F2y	F2z	M2x	M2y	M2z	EC1x	EC1y	EC1z	EC2x	EC2y	EC2z
54.59	-29.301	5.3994	12.3343	-3.6508	-13.3365	4.8803	-54.3161	734.2423	-66.3459	256.0007	106.7879	866.3417	-0.0592	0.0182	-0.0073	-0.0462	0.0165	0.9585
54.6014	-19.8368	4.7259	8.2426	-2.869	-9.0007	4.6609	-48.465	736.5692	-69.1164	257.4083	105.5736	866.7488	-0.0592	0.0182	-0.0073	-0.0462	0.0165	0.9585
54.6127	-11.8473	4.1897	4.8093	-2.2179	-5.36	4.5253	-42.8573	738.9072	-71.2581	258.6932	103.8895	866.0483	-0.0592	0.0182	-0.0073	-0.0462	0.0165	0.9585
54.6241	-5.7464	3.8288	2.2016	-1.7378	-2.5853	4.4739	-37.8191	741.4619	-72.671	259.9055	101.854	864.5518	-0.0592	0.0182	-0.0073	-0.0462	0.0165	0.9585
54.6354	-1.5541	3.6591	0.42128	-1.4301	-0.6889	4.5532	-33.4576	744.4113	-73.4272	261.1242	99.6081	862.6286	-0.0592	0.0182	-0.0073	-0.0462	0.0165	0.9585
54.6468	1.0257	3.6143	-0.67048	-1.2606	0.4756	4.6695	-29.7345	747.8435	-73.637	262.4133	97.2379	860.5677	-0.0592	0.0182	-0.0073	-0.0462	0.0165	0.9585
54.6581	2.3264	3.6422	-1.2207	-1.1886	1.0504	4.8103	-26.4895	751.6566	-73.4212	263.7744	94.7711	858.4175	-0.0592	0.0182	-0.0073	-0.0462	0.0165	0.9585
54.6695	2.7446	3.656	-1.3988	-1.1667	1.2088	4.8625	-23.5029	755.5508	-72.8439	265.1347	92.1541	856.0016	-0.0592	0.0182	-0.0073	-0.0462	0.0165	0.9585
54.6809	2.5558	3.5883	-1.3312	-1.1489	1.0665	4.7735	-20.5113	759.0321	-71.941	266.3428	89.294	852.8788	-0.0592	0.0182	-0.0073	-0.0462	0.0165	0.9585
54.6922	2.052	3.3452	-1.1264	-1.0848	0.74997	4.4147	-17.2893	761.4916	-70.7333	267.1925	86.1002	848.4763	-0.0592	0.0182	-0.0073	-0.0462	0.0165	0.9585
54.7036	1.3712	2.8352	-0.85795	-0.92341	0.33422	3.6815	-13.6728	762.2782	-69.2645	267.45	82.5335	842.1861	-0.0592	0.0182	-0.0073	-0.0462	0.0165	0.9585
54.7149	0.66234	1.9356	-0.56685	-0.60692	-0.11582	2.4215	-9.6063	760.8661	-67.6113	266.9091	78.6313	833.5595	-0.0592	0.0182	-0.0073	-0.0462	0.0165	0.9585
54.7263	0.0080117	0.55494	-0.29768	-0.088124	-0.53964	0.55844	-5.0893	756.9225	-65.8682	265.4256	74.4768	822.3514	-0.0592	0.0182	-0.0073	-0.0462	0.0165	0.9585
54.7376	-0.48827	-1.383	-0.063981	0.66423	-0.88737	-2.0053	-0.23103	750.4259	-64.1587	262.959	70.2233	808.6697	-0.0592	0.0182	-0.0073	-0.0462	0.0165	0.9585
54.749	-0.71431	-3.8361	0.10219	1.6343	-1.0784	-5.1972	4.8259	741.6357	-62.6128	259.5774	66.0534	792.8932	-0.0592	0.0182	-0.0073	-0.0462	0.0165	0.9585
54.7604	-0.51024	-6.6364	0.17811	2.7461	-1.0129	-8.8122	9.8459	731.1155	-61.3819	255.4667	62.1971	775.7224	-0.0592	0.0182	-0.0073	-0.0462	0.0165	0.9585
54.7717	0.30344	-9.3342	0.10638	3.8143	-0.54233	-12.287	14.6332	719.6922	-60.5774	250.922	58.8435	758.0647	-0.0592	0.0182	-0.0073	-0.0462	0.0165	0.9585
54.7831	1.9733	-11.158	-0.16904	4.5223	0.5151	-14.65	18.9579	708.3615	-60.2768	246.3099	56.1544	740.9727	-0.0592	0.0182	-0.0073	-0.0462	0.0165	0.9585
54.7944	4.7119	-10.8681	-0.74253	4.3736	2.3729	-14.3218	22.7657	698.0926	-60.4843	241.9988	54.1697	725.4054	-0.0592	0.0182	-0.0073	-0.0462	0.0165	0.9585
54.8058	8.6959	-6.733	-1.6992	2.6789	5.2149	-9.0937	26.0607	689.6231	-61.1621	238.2799	52.8608	712.0586	-0.0592	0.0182	-0.0073	-0.0462	0.0165	0.9585
54.8171	13.9272	3.4882	-3.1251	-1.4461	9.1432	3.9086	29.0217	683.2696	-62.2083	235.2988	52.0859	701.1269	-0.0592	0.0182	-0.0073	-0.0462	0.0165	0.9585
54.8285	20.1015	22.3489	-5.022	-9.0044	14.0384	27.9394	31.8475	678.8847	-63.4841	233.0346	51.6514	692.3818	-0.0592	0.0182	-0.0073	-0.0462	0.0165	0.9585
54.8399	26.4197	52.3555	-7.3139	-20.9705	19.4693	66.2202	34.7826	675.7485	-64.7875	231.2695	51.286	685.0133	-0.0592	0.0182	-0.0073	-0.0462	0.0165	0.9585
54.8512	31.378	95.2162	-9.7224	-37.9923	24.4704	120.9665	37.9373	672.6203	-65.8653	229.5973	50.7076	677.7591	-0.0592	0.0182	-0.0073	-0.0462	0.0165	0.9585
54.8626	32.5583	150.8079	-11.7258	-59.9794	27.4018	192.0844	41.371	667.6709	-66.4258	227.4136	49.6213	668.7941	-0.0592	0.0182	-0.0073	-0.0462	0.0165	0.9585
54.8739	27.3911	216.5799	-12.4061	-85.8761	26.1483	276.4314	44.9519	658.6982	-66.1371	223.9816	47.7514	656.0142	-0.0592	0.0182	-0.0073	-0.0462	0.0165	0.9585
54.8853	15.6457	288.803	-10.8958	-114.1259	19.531	369.3294	48.4913	643.3265	-64.7196	218.5065	44.8983	637.1488	-0.0592	0.0182	-0.0073	-0.0462	0.0165	0.9585
54.8966	0.039115	362.587	-6.4915	-142.6797	7.6488	464.3164	51.6206	619.4972	-61.9291	210.2869	40.9567	610.3185	-0.0592	0.0182	-0.0073	-0.0462	0.0165	0.9585
54.908	-16.3243	430.6832	1.5596	-168.6881	-9.0682	551.6779	53.9551	585.6128	-57.7204	198.7722	36.0191	574.0607	-0.0592	0.0182	-0.0073	-0.0462	0.0165	0.9585
54.9194	-30.8751	487.904	12.4176	-190.1753	-28.4796	624.2899	55.0124	541.0121	-52.1659	183.7102	30.3157	527.8773	-0.0592	0.0182	-0.0073	-0.0462	0.0165	0.9585
54.9307	-42.3067	533.4495	24.3274	-206.9188	-47.8375	680.9611	54.3738	486.1998	-45.477	165.2366	24.1827	472.3685	-0.0592	0.0182	-0.0073	-0.0462	0.0165	0.9585
54.9421	-50.3765	569.5088	35.8091	-219.8703	-65.1638	724.528	51.715	423.0333	-38.0546	143.9345	18.0951	409.428	-0.0592	0.0182	-0.0073	-0.0462	0.0165	0.9585
54.9534	-55.3807	599.0231	45.718	-230.2755	-79.1825	758.8608	46.9926	354.485	-30.3549	120.7783	12.484	341.9395	-0.0592	0.0182	-0.0073	-0.0462	0.0165	0.9585
54.9648	-57.7318	624.328	53.4502	-239.117	-89.3145	787.075	40.4267	284.4752	-22.9018	97.0694	7.7511	273.6695	-0.0592	0.0182	-0.0073	-0.0462	0.0165	0.9585
54.9761	-57.7677	646.7405	58.7622	-246.9578	-95.4624	810.8666	32.6484	217.2291	-16.126	74.2388	4.0748	208.5558	-0.0592	0.0182	-0.0073	-0.0462	0.0165	0.9585
54.9875	-55.8508	666.9026	62.0124	-254.0441	-98.2325	831.2	24.5506	156.5941	-10.3843	53.599	1.4713	150.162	-0.0592	0.0182	-0.0073	-0.0462	0.0165	0.9585
54.9989	-52.3172	684.9099	63.6593	-260.3949	-98.3899	848.3132	17.0707	105.2781	-5.8808	36.0891	-0.19	100.9261	-0.0592	0.0182	-0.0073	-0.0462	0.0165	0.9585
55.0102	-47.6957	700.4091	64.4569	-265.8334	-97.0555	862.0128	10.7547	64.5436	-2.6421	22.161	-1.0748	61.9568	-0.0592	0.0182	-0.0073	-0.0462	0.0165	0.9585
55.0216	-42.5003	712.8754	64.976	-270.126	-95.149	871.8232	5.8583	34.3963	-0.54447	11.835	-1.376	33.1827	-0.0592	0.0182	-0.0073	-0.0462	0.0165	0.9585
55.0329	-37.3004	722.0855	65.6207	-273.1654	-93.3687	877.6385	2.3304	13.8769	0.61832	4.7952	-1.2708	13.6557	-0.0592	0.0182	-0.0073	-0.0462	0.0165	0.9585
55.0443	-32.382	728.372	66.4236	-275.0841	-91.8882	879.9515	0.047902	1.3697	1.0945	0.49635	-0.9401	1.7897	-0.0592	0.0182	-0.0073	-0.0462	0.0165	0.9585
55.0556	-27.9332	732.4516	67.0965	-276.1779	-90.4617	879.698	-1.2588	-5.0812	1.1419	-1.7258	-0.53326	-4.2926	-0.0592	0.0182	-0.0073	-0.0462	0.0165	0.9585
55.067	-24.0275	734.9887	67.4107	-276.7285	-88.8477	877.6828	-1.8468	-7.3898	0.94427	-2.5227	-0.13326	-6.4514	-0.0592	0.0182	-0.0073	-0.0462	0.0165	0.9585
55.0784	-20.698	736.4445	67.234	-276.9273	-86.9067	874.5106	-1.9843	-7.1504	0.63712	-2.4414	0.2151	-6.2118	-0.0592	0.0182	-0.0073	-0.0462	0.0165	0.9585
55.0897	-17.8771	737.0742	66.7497	-276.8652	-84.8105	870.4877	-1.8488	-5.5975	0.31218	-1.9037	0.47948	-4.7457	-0.0592	0.0182	-0.0073	-0.0462	0.0165	0.9585
